<?xml version="1.0" ?><!DOCTYPE svg  PUBLIC '-//W3C//DTD SVG 1.1//EN'  'http://www.w3.org/Graphics/SVG/1.1/DTD/svg11.dtd'><!-- Uploaded to: SVG Repo, www.svgrepo.com, Generator: SVG Repo Mixer Tools -->
<svg width="800px" height="800px" viewBox="0 0 512 512" enable-background="new 0 0 512 512" id="Layer_1" version="1.1" xml:space="preserve" xmlns="http://www.w3.org/2000/svg" xmlns:xlink="http://www.w3.org/1999/xlink"><path d="M427.6,81.1H304.3c-3.8,0-7.1,2.4-8.2,6l-15.7,48.5h-74.5c-4.2-32-31.6-56.7-64.7-56.7  c-36,0-65.4,29.3-65.4,65.4s29.3,65.4,65.4,65.4c4,0,8-0.4,12-1.1l5.1,30.6c0,0,0,0.1,0,0.2L187.5,415c1.8,10.6,10.8,18.2,21.5,18.2  h110.1c10.7,0,19.7-7.7,21.5-18.2l42.3-254.1c1.1-6.4-0.7-12.8-4.8-17.7c-4.2-4.9-10.2-7.7-16.6-7.7h-62.9l12.1-37.2h117  c4.8,0,8.7-3.9,8.7-8.7S432.4,81.1,427.6,81.1z M249.6,230.2c-18.1,7-41.2,11.8-75.2,1l-12.2-73.1c-0.3-1.8,0.5-3,1-3.6  c0.5-0.6,1.6-1.6,3.4-1.6h108.1L249.6,230.2z M141.1,192.2c-26.5,0-48.1-21.6-48.1-48.1s21.6-48.1,48.1-48.1  c23.6,0,43.2,17,47.2,39.4h-21.7c-6.4,0-12.5,2.8-16.6,7.7c-4.2,4.9-5.9,11.3-4.9,17.7l5.1,30.4  C147.2,191.9,144.2,192.2,141.1,192.2z M361.5,152.8c1.8,0,2.9,1,3.4,1.6c0.5,0.6,1.3,1.9,1,3.6l-9,54.3  c-36.3-16.1-61.2-3.9-85.4,7.9c-0.2,0.1-0.4,0.2-0.5,0.3l22-67.7H361.5z" fill="#1D3A55"/></svg>